<svg xmlns="http://www.w3.org/2000/svg" viewBox="0 0 103.69 103.69"><path d="M51.9 71.52c7.7 0 14.54-4.32 17.43-11.02.66-1.52 2.42-2.22 3.94-1.56 1.52.66 2.22 2.43 1.57 3.95C71 71.72 62 77.5 51.9 77.5c-10.3 0-19.35-5.77-23.06-14.7-.63-1.54.1-3.3 1.62-3.93.38-.16.77-.24 1.15-.24 1.2 0 2.3.7 2.8 1.85 2.8 6.7 9.68 11.02 17.55 11.02zM27 30.16c.07-1.1 1-1.93 2.12-1.86.1 0 8.68.5 11.9-3.96.66-.9 1.9-1.1 2.8-.44.9.65 1.1 1.9.45 2.8-3.72 5.12-11.4 5.62-14.3 5.62-.63 0-1.03-.02-1.1-.03-1.1-.1-1.94-1.07-1.87-2.18zm6.25 12.97c-.74-1.02-1.2-2.28-1.2-3.64 0-3.48 2.8-6.2 6.2-6.2 3.43 0 6.2 2.72 6.2 6.2 0 1.3-.4 2.5-1.1 3.5-1.13-1.57-2.95-2.58-5-2.58-2.12 0-3.98 1.06-5.1 2.67zm27.13-16.48c-.65-.9-.45-2.14.44-2.8.9-.64 2.15-.44 2.8.46 3.22 4.5 11.82 4 11.9 4 1.12-.07 2.06.77 2.13 1.87.07 1.1-.76 2.05-1.86 2.13-.1 0-.5.02-1.17.02-2.9 0-10.58-.5-14.3-5.64zm6 6.6c3.43 0 6.2 2.78 6.2 6.2 0 1.36-.43 2.62-1.18 3.64-1.12-1.66-2.98-2.7-5.1-2.7-2.05 0-3.87 1-5 2.55-.7-1.02-1.1-2.23-1.1-3.55 0-3.4 2.77-6.2 6.2-6.2zm19.1 70.44H18.22C8.18 103.7 0 95.5 0 85.42v-67.2C0 8.17 8.18 0 18.23 0h67.23c10.06 0 18.24 8.18 18.24 18.23v67.23c0 10.06-8.18 18.23-18.23 18.23zM18.22 8.53c-5.32 0-9.65 4.33-9.65 9.65v67.23c0 5.33 4.33 9.65 9.65 9.65h67.23c5.33 0 9.66-4.3 9.66-9.66v-67.2c0-5.33-4.3-9.66-9.62-9.66H18.23z"/></svg>