<svg xmlns="http://www.w3.org/2000/svg" shape-rendering="crispEdges" viewBox="0 0 24 21"><path d="M6 0v1h4V0H6zm4 1v1h4V1h-4zm4 0h4V0h-4v1zm4 0v1h2V1h-2zM6 1H4v1h2V1zm4 12v1H8v1h2v1h4v-1h2v-1h-2v-1h-4z" opacity=".5"/><path d="M6 4v4h2V6h2V4H6zm8 0v2h2v2h2V4h-4zM4 9v2h2v1h2V9H4zm12 0v3h2v-1h2V9h-4zm-8 7v1H6v2h4v-3H8zm6 0v3h4v-2h-2v-1h-2z" opacity=".25"/><path d="M0 5v12h2v2h2v1h2v1h12v-1h2v-1h2v-2h2V5h-2v2h-4v1H6V7H2V5H0zm2 4h20v6h-2v2h-2v2H6v-2H4v-2H2V9z" opacity=".75"/><path d="M8 6v2h2V6H8zm6 0v2h2V6h-2z"/><path d="M2 9v6h2v2h4v-1h2v-1H8v-1h2v-1h4v1h2v1h-2v1h2v1h4v-2h2V9h-2v2h-2v1h-2V9H8v3H6v-1H4V9H2zm12 7h-4v3h4v-3z" opacity=".9"/></svg>