<svg xmlns="http://www.w3.org/2000/svg" enable-background="new 0 0 640 480" viewBox="0 0 270 120"><defs><filter id="a" color-interpolation-filters="sRGB"><feFlood result="flood" flood-color="#000" flood-opacity=".5"/><feComposite result="composite1" operator="in" in2="SourceGraphic" in="flood"/><feGaussianBlur result="blur" stdDeviation="1" in="composite1"/><feOffset result="offset" dy="2" dx="-2"/><feComposite result="composite2" in2="offset" in="SourceGraphic"/></filter></defs><path fill="#94989e" stroke="#000" d="M10.5 10.5v6.05h17.08v45.22h6.86V16.55H51.6V10.5H10.5zm47.32 0v46.85h-.03v51.27h6.8V87.78h13.3c7.3 0 12.4-1.5 15.2-4.53 2.8-3.02 4.2-6.7 4.2-11.07 0-2.54-.5-4.87-1.6-7-1.1-2.1-2.5-3.76-4.2-4.94-1-.65-2.1-1.17-3.3-1.6v-20.4c0-3.64-.5-6.42-1.3-8.33-.9-1.9-2.4-3.4-4.4-4.4-2.1-1.1-4.5-1.6-7.3-1.6-4.5 0-8.3 1.7-11.3 5.1V10.5h-6.3zm16.3 18.7c2.52 0 4.47.73 5.85 2.16 1.38 1.44 2.07 3.73 2.07 6.87V57.5a72.8 72.8 0 0 0-4.7-.14H64.2v-15.9c0-2.92.35-5.2 1.06-6.86.7-1.66 1.9-2.97 3.56-3.94 1.66-.97 3.43-1.45 5.32-1.45zm-9.47 34.2H77.9c3.12 0 5.26.16 6.4.46 1.8.5 3.25 1.5 4.34 3.03 1.1 1.5 1.65 3.3 1.65 5.5 0 2.9-1 5.2-2.8 6.8-1.9 1.6-5.1 2.4-9.5 2.4H64.6V63.4zm121.5-51.74l-6.33 3.77v9.2h-4.67v4.9h4.67V50.9c0 2.94.16 5.1.48 6.45h-11.1v-.04c-.28-1.5-.4-5.2-.4-11.1v-8.4c0-2.7-.12-4.7-.33-5.8-.38-1.7-1.04-3.1-1.98-4.2-1-1.1-2.5-2-4.5-2.8-2-.7-4.6-1.1-7.8-1.1-3.3 0-6.1.5-8.5 1.3-2.5.9-4.4 2.2-5.7 3.8-1.3 1.6-2.3 3.8-2.8 6.4l6.2.8c.7-2.6 1.7-4.4 3.1-5.5 1.4-1 3.6-1.5 6.6-1.5 3.2 0 5.6.7 7.2 2.2 1.2 1.1 1.8 2.9 1.8 5.4 0 .3 0 .8-.1 1.7-2.4.9-6.2 1.6-11.3 2.2-2.6.3-4.4.6-5.7 1-1.7.5-3.3 1.2-4.6 2.1-1.4.9-2.5 2.1-3.3 3.7-.8 1.5-1.3 3.2-1.3 5 0 3.1 1.1 5.7 3.3 7.7l.6.5V87c0 6.45-1.1 10.8-3.2 13.06-2.2 2.24-5.8 3.37-10.8 3.37-3 0-5.5-.58-7.5-1.7-2.1-1.16-3.5-2.8-4.3-4.9-.9-2.1-1.3-5.4-1.3-9.85v-24.4c.3 0 .5.03.8.03 4.4 0 7.9-1 10.7-3.1 2.8-2.1 4.7-5 5.72-8.8l-6.6-.8c-.96 2.7-2.27 4.6-3.9 5.8-1.67 1.2-3.66 1.8-6 1.8H112c-2.53-.3-4.7-1.3-6.47-3.1-2.1-2.1-3.3-5.3-3.5-9.4h28v-1.6c0-6.1-1.6-10.9-4.8-14.2-3.2-3.4-7.3-5.1-12.3-5.1-5.2 0-9.4 1.8-12.7 5.2-3.3 3.5-4.9 8.3-4.9 14.6 0 6.1 1.6 10.8 4.8 14.1a15.48 15.48 0 0 0 5.4 3.6V87c0 5.42.7 9.7 2 12.84 1.34 3.16 3.55 5.55 6.64 7.2 3.04 1.66 7.02 2.5 11.9 2.5 5 0 9-.98 12.1-2.88 3.06-1.9 5.2-4.35 6.4-7.4 1.2-3.02 1.75-7.1 1.75-12.26V62.5c.7.07 1.4.1 2.1.1 2.5 0 4.87-.4 7-1.2.8-.3 1.6-.72 2.5-1.17v48.4h6.9V85.86h7.9c1.8 0 3.1.08 3.8.24 1.1.26 2.1.7 3.2 1.37 1 .65 2.2 1.8 3.5 3.42 1.3 1.6 2.9 3.9 4.93 7l6.9 10.6h8.6l-9-14c-1.8-2.8-3.7-5-5.7-6.8-.96-.9-2.34-1.7-4.15-2.6 4.93-.7 8.6-2.3 11-4.8 2.33-2.5 3.5-5.6 3.5-9.2 0-2.9-.7-5.4-2.13-7.8-1.2-2-2.8-3.5-4.75-4.4l-.5-3.1c-1.16.1-2.1.2-2.8.2-.9 0-1.66-.2-2.17-.5a2.63 2.63 0 0 1-1.1-1.3c-.2-.5-.3-1.6-.3-3.4V29.5h6.4v-4.9h-6.4v-13zm-72.57 17.3c3.23 0 5.86 1.22 7.9 3.64 1.3 1.57 2.1 3.9 2.4 7.03H102.9c.22-3.24 1.32-5.83 3.3-7.76 2-1.94 4.46-2.9 7.38-2.9zm48.77 14.17v2.3c0 2.8-.34 4.88-1.03 6.3-.9 1.85-2.3 3.3-4.2 4.36-1.9 1-4.1 1.5-6.55 1.5-2.47 0-4.35-.6-5.64-1.7-1.28-1.2-1.92-2.5-1.92-4.2 0-1.1.3-2.1.9-3 .6-.9 1.5-1.6 2.5-2.1 1.1-.5 3-.9 5.6-1.3 4.6-.7 8.1-1.5 10.4-2.4zm3.02 19.9h16.4c3.85 0 6.66.77 8.44 2.33 1.8 1.57 2.7 3.56 2.7 5.98 0 1.66-.4 3.2-1.4 4.6-.9 1.42-2.2 2.44-4 3.08-1.7.64-4.2.96-7.3.96h-14.8V63.02zM214.2 23.8c-5.2 0-9.4 1.7-12.68 5.16-3.25 3.45-4.88 8.3-4.88 14.55 0 6.1 1.6 10.8 4.83 14.1 3.22 3.4 7.57 5 13.07 5 4.36 0 7.94-1 10.75-3.1 2.8-2.1 4.7-5 5.7-8.8l-6.6-.8c-1 2.7-2.3 4.6-3.9 5.8-1.7 1.2-3.7 1.9-6 1.9-3.2 0-5.8-1.1-7.9-3.2-2.1-2.1-3.3-5.3-3.5-9.3h28v-1.7c0-6.1-1.6-10.9-4.8-14.2-3.2-3.4-7.3-5.1-12.3-5.1zm.05 5.16c3.23 0 5.86 1.2 7.9 3.63 1.3 1.5 2.1 3.9 2.4 7h-20.98c.2-3.3 1.32-5.9 3.3-7.8 2-2 4.46-2.9 7.38-2.9zm38.58-5.18c-1.48 0-2.84.4-4.08 1.25-1.24.84-2.6 2.58-4.05 5.2V24.6H239v37.15h6.37V42.33c0-2.66.35-5.1 1.06-7.35.48-1.47 1.27-2.62 2.38-3.44a6.1 6.1 0 0 1 3.8-1.24c1.6 0 3.1.45 4.7 1.36l2.2-5.84c-2.2-1.35-4.4-2.03-6.5-2.03z" filter="url(#a)"/></svg>