<?xml version="1.0" encoding="UTF-8" standalone="no"?>
<svg
   xmlns:dc="http://purl.org/dc/elements/1.1/"
   xmlns:cc="http://creativecommons.org/ns#"
   xmlns:rdf="http://www.w3.org/1999/02/22-rdf-syntax-ns#"
   xmlns:svg="http://www.w3.org/2000/svg"
   xmlns="http://www.w3.org/2000/svg"
   xml:space="preserve"
   enable-background="new 0 0 640 480"
   viewBox="0 0 270 120"
   height="120"
   width="270"
   y="0px"
   x="0px"
   id="Layer_1"
   version="1.1"><metadata
     id="metadata57"><rdf:RDF><cc:Work
         rdf:about=""><dc:format>image/svg+xml</dc:format><dc:type
           rdf:resource="http://purl.org/dc/dcmitype/StillImage" /><dc:title></dc:title></cc:Work></rdf:RDF></metadata><defs
     id="defs55"><filter
       id="filter4613"
       style="color-interpolation-filters:sRGB;"><feFlood
         id="feFlood4615"
         result="flood"
         flood-color="rgb(0,0,0)"
         flood-opacity="0.498039" /><feComposite
         id="feComposite4617"
         result="composite1"
         operator="in"
         in2="SourceGraphic"
         in="flood" /><feGaussianBlur
         id="feGaussianBlur4619"
         result="blur"
         stdDeviation="1"
         in="composite1" /><feOffset
         id="feOffset4621"
         result="offset"
         dy="2"
         dx="-2" /><feComposite
         id="feComposite4623"
         result="composite2"
         operator="over"
         in2="offset"
         in="SourceGraphic" /></filter></defs><path
     d="m 10.500164,10.500214 0,6.048438 17.080418,0 0,45.222404 6.86243,0 0,-45.220464 17.151151,0 0,-6.050378 -41.093999,0 z m 47.31597,-5e-5 0,46.854496 -0.02354,0 0,51.27084 6.858498,0 0,-20.844074 13.296563,0 c 7.331907,0 12.399754,-1.508847 15.206179,-4.529047 2.805417,-3.019206 4.208216,-6.708854 4.208216,-11.069044 0,-2.539714 -0.525525,-4.872759 -1.573659,-6.994658 -1.04914,-2.120905 -2.435111,-3.770883 -4.155176,-4.948721 -0.947254,-0.647175 -2.030754,-1.170657 -3.22787,-1.589345 l 0,-20.416623 c 0,-3.63797 -0.441946,-6.411649 -1.326122,-8.323647 -0.884174,-1.911997 -2.351721,-3.409742 -4.402724,-4.494069 -2.051003,-1.084327 -4.468178,-1.626253 -7.249455,-1.626253 -4.526489,0 -8.275118,1.701907 -11.2455,5.106098 l 0,-18.395953 -6.365371,0 z m 16.302435,18.710707 c 2.521757,0 4.47354,0.716362 5.852609,2.150858 1.379071,1.434495 2.068747,3.723729 2.068747,6.872259 l 0,19.254741 c -1.348501,-0.088 -2.906438,-0.134069 -4.693487,-0.134069 l -13.164933,0 0,-15.903134 c 0,-2.914752 0.35376,-5.198426 1.060898,-6.854762 0.707139,-1.65534 1.892274,-2.96656 3.553999,-3.934497 1.661726,-0.96694 3.436129,-1.451396 5.322167,-1.451396 z m -9.467515,34.194167 13.261196,0 c 3.111207,0 5.24599,0.152233 6.400748,0.454651 1.791484,0.48944 3.235575,1.499177 4.331992,3.025194 1.096415,1.527011 1.644383,3.363514 1.644383,5.508294 0,2.961507 -0.931793,5.258272 -2.79369,6.889738 -1.862901,1.63246 -5.01004,2.448132 -9.441976,2.448132 l -13.402653,0 0,-18.326009 z M 186.1492,11.654286 l -6.33002,3.777111 0,9.197982 -4.66793,0 0,4.896255 4.66793,0 0,21.368683 c 0,2.950275 0.16102,5.096209 0.47741,6.460343 l -11.09423,0 c -0.003,-0.01502 -0.007,-0.02965 -0.0101,-0.04467 -0.27059,-1.549891 -0.40669,-5.251636 -0.40669,-11.10402 l 0,-8.393589 c 0,-2.798362 -0.10598,-4.73318 -0.31827,-5.80557 -0.3772,-1.725971 -1.03687,-3.153145 -1.98033,-4.284227 -0.94352,-1.131083 -2.41668,-2.069255 -4.4204,-2.815352 -2.00474,-0.746097 -4.61047,-1.119145 -7.81723,-1.119145 -3.22991,0 -6.07018,0.435133 -8.52254,1.309559 -2.45235,0.874425 -4.32615,2.12356 -5.62275,3.744083 -1.29658,1.620522 -2.22737,3.748411 -2.79369,6.38263 l 6.22589,0.839358 c 0.68299,-2.634219 1.73669,-4.470721 3.16304,-5.508294 1.42635,-1.036576 3.63608,-1.556318 6.6306,-1.556318 3.20576,0 5.62294,0.711846 7.24945,2.133369 1.20204,1.048546 1.80354,2.856278 1.80354,5.420862 0,0.233777 -0.0123,0.781264 -0.0354,1.643752 -2.42821,0.839608 -6.21055,1.564456 -11.34963,2.170287 -2.52275,0.302417 -4.4088,0.616037 -5.65811,0.94233 -1.69793,0.466559 -3.22556,1.154182 -4.5815,2.063425 -1.35593,0.909243 -2.45188,2.117552 -3.28878,3.621684 -0.83689,1.50413 -1.25539,3.165201 -1.25539,4.983688 0,3.101773 1.10817,5.648092 3.32414,7.641663 0.18328,0.164887 0.38322,0.313122 0.57956,0.464371 l 0,26.857548 c 0,6.434339 -1.07249,10.78486 -3.21804,13.045036 -2.14658,2.26117 -5.74323,3.39245 -10.78775,3.3924 -2.94826,1e-5 -5.44038,-0.57166 -7.47931,-1.71368 -2.03894,-1.14103 -3.47742,-2.767823 -4.31432,-4.878779 -0.83689,-2.109962 -1.25538,-5.390282 -1.25538,-9.844977 l 0,-24.362789 c 0.26935,0.008 0.52846,0.03104 0.80352,0.03104 4.36153,0 7.94395,-1.049569 10.75042,-3.147593 2.80541,-2.099019 4.72612,-5.048122 5.76419,-8.848242 l -6.57755,-0.804381 c -0.96766,2.658094 -2.27465,4.593808 -3.92531,5.809448 -1.64965,1.212656 -3.64273,1.816666 -5.97639,1.816666 -0.28557,0 -0.56191,-0.0189 -0.83888,-0.03691 l 0,-0.04467 -0.53831,0 c -2.53049,-0.277446 -4.69118,-1.328905 -6.47341,-3.170909 -2.09828,-2.168655 -3.26558,-5.292184 -3.50094,-9.372847 l 28.00764,0 c 0.0231,-0.746096 0.0354,-1.305669 0.0354,-1.678718 0,-6.131911 -1.59139,-10.888806 -4.77402,-14.269093 -3.18263,-3.380326 -7.28502,-5.071131 -12.30639,-5.071131 -5.18637,0 -9.40701,1.726091 -12.66004,5.176042 -3.254052,3.449952 -4.880128,8.300578 -4.880128,14.54889 0,6.03841 1.609248,10.72931 4.827078,14.074809 1.53834,1.599383 3.34434,2.806229 5.40271,3.641112 l 0,25.744222 c 0,5.433574 0.65961,9.71809 1.98034,12.852692 1.31972,3.136588 3.52385,5.531668 6.61292,7.187018 3.08909,1.65533 7.05998,2.48309 11.91741,2.48309 4.99825,0 9.03584,-0.94927 12.11386,-2.85032 3.077,-1.90106 5.20415,-4.36571 6.38305,-7.396849 1.1789,-3.030148 1.76816,-7.121593 1.76816,-12.275631 l 0,-24.46964 c 0.66536,0.06138 1.34847,0.102971 2.07268,0.102971 2.49963,0 4.8408,-0.407339 7.02156,-1.224067 0.79845,-0.299025 1.612,-0.702902 2.43417,-1.158002 l 0,48.395268 6.86046,0 0,-22.767615 7.95672,0 c 1.76835,0 3.04167,0.08267 3.81922,0.244809 1.0602,0.257652 2.10364,0.712373 3.12965,1.363965 1.026,0.652586 2.18668,1.795915 3.48327,3.42738 1.29659,1.63246 2.94712,3.986704 4.95085,7.064602 l 6.86046,10.666859 8.62863,0 -9.01763,-13.952401 c -1.79148,-2.72773 -3.68973,-5.001306 -5.69347,-6.819793 -0.94252,-0.838613 -2.32186,-1.690566 -4.13748,-2.553053 4.97509,-0.675468 8.65142,-2.260427 11.0333,-4.756369 2.38095,-2.494948 3.57365,-5.560999 3.57365,-9.197972 0,-2.820246 -0.72171,-5.397295 -2.15911,-7.729096 -1.22694,-1.988657 -2.80868,-3.460935 -4.74065,-4.424125 l -0.50489,-3.050442 c -1.15577,0.163146 -2.08757,0.244809 -2.79369,0.244809 -0.94252,0 -1.66788,-0.152234 -2.17484,-0.454651 -0.50697,-0.302418 -0.87196,-0.711747 -1.09627,-1.224067 -0.22431,-0.51232 -0.33594,-1.66675 -0.33594,-3.462357 l 0,-21.718413 6.40074,0 0,-4.896255 -6.40074,0 0,-12.975093 z m -72.56529,17.311775 c 3.2299,0 5.85813,1.21191 7.88599,3.637222 1.32073,1.56183 2.12204,3.904982 2.4047,7.029636 l -20.97038,0 c 0.21224,-3.241045 1.3148,-5.829195 3.30646,-7.764073 1.99165,-1.934878 4.45016,-2.902785 7.37323,-2.902785 z m 48.76585,14.164182 0,2.310185 c 0,2.774486 -0.34152,4.872629 -1.02553,6.295187 -0.89625,1.842362 -2.29804,3.292734 -4.20822,4.354182 -1.91017,1.061447 -4.09181,1.591275 -6.54416,1.591275 -2.47548,0 -4.35396,-0.559572 -5.63847,-1.678717 -1.28451,-1.119146 -1.92729,-2.51758 -1.92729,-4.196786 0,-1.096295 0.29463,-2.093865 0.88408,-2.992166 0.58944,-0.898301 1.42543,-1.579378 2.51078,-2.045938 1.08537,-0.466558 2.93472,-0.885985 5.55203,-1.259033 4.62104,-0.65358 8.08626,-1.44507 10.39678,-2.378189 z m 3.01766,19.890087 16.40852,0 c 3.8435,0 6.65371,0.782377 8.43413,2.343212 1.77941,1.562824 2.66992,3.555122 2.66992,5.980434 0,1.656335 -0.45978,3.18837 -1.37916,4.598991 -0.91939,1.411615 -2.26306,2.436006 -4.03141,3.077649 -1.76834,0.642638 -4.22019,0.961759 -7.35554,0.961759 l -14.74646,0 0,-16.962045 z m 48.8248,-39.228371 c -5.18636,0 -9.407,1.726091 -12.66003,5.176042 -3.25404,3.449952 -4.88011,8.300578 -4.88011,14.54889 0,6.03841 1.60922,10.72931 4.82706,14.074809 3.21783,3.345498 7.57356,5.018665 13.0667,5.018665 4.36153,0 7.945,-1.048574 10.75042,-3.147593 2.80541,-2.099019 4.72713,-5.048122 5.7642,-8.848242 l -6.57756,-0.804382 c -0.96664,2.658095 -2.27566,4.596793 -3.92531,5.809449 -1.64966,1.212656 -3.64273,1.816666 -5.97638,1.816666 -3.13536,0 -5.75335,-1.08386 -7.85064,-3.252515 -2.09727,-2.168655 -3.26556,-5.292184 -3.50095,-9.372847 l 28.00766,0 c 0.0231,-0.746096 0.0354,-1.305669 0.0353,-1.678718 1e-5,-6.131911 -1.5914,-10.888787 -4.77404,-14.269093 -3.18263,-3.380326 -7.285,-5.071131 -12.30638,-5.071131 z m 0.0707,5.174102 c 3.22991,0 5.85813,1.21191 7.88599,3.637222 1.32073,1.56183 2.12205,3.904982 2.40471,7.029636 l -20.97038,0 c 0.21224,-3.241045 1.31479,-5.829195 3.30644,-7.764073 1.99167,-1.934878 4.45013,-2.902785 7.37324,-2.902785 z m 38.58126,-5.176042 c -1.4857,0 -2.84722,0.420421 -4.08446,1.259033 -1.23724,0.838614 -2.58753,2.576801 -4.04909,5.21102 l 0,-5.630693 -5.72883,0 0,37.141627 6.36537,0 0,-19.445144 c 0,-2.658095 0.35376,-5.106099 1.06089,-7.34439 0.47077,-1.469314 1.26086,-2.617208 2.36934,-3.444868 1.10849,-0.826675 2.35736,-1.241555 3.7485,-1.241555 1.55611,0 3.11184,0.454711 4.66796,1.363954 l 2.1925,-5.840535 c -2.21597,-1.351927 -4.39663,-2.028449 -6.54218,-2.028449 z"
     style="fill:#94989e;fill-opacity:1;stroke:#000000;stroke-width:1.00032806;stroke-linecap:butt;stroke-linejoin:miter;stroke-opacity:1;filter:url(#filter4613)"
     id="path15" /><g
     transform="translate(-186.78461,-203.91796)"
     id="g23" /><g
     transform="translate(-186.78461,-203.91796)"
     id="g25" /><g
     transform="translate(-186.78461,-203.91796)"
     id="g27" /><g
     transform="translate(-186.78461,-203.91796)"
     id="g29" /><g
     transform="translate(-186.78461,-203.91796)"
     id="g31" /><g
     transform="translate(-186.78461,-203.91796)"
     id="g33" /><g
     transform="translate(-186.78461,-203.91796)"
     id="g35" /><g
     transform="translate(-186.78461,-203.91796)"
     id="g37" /><g
     transform="translate(-186.78461,-203.91796)"
     id="g39" /><g
     transform="translate(-186.78461,-203.91796)"
     id="g41" /><g
     transform="translate(-186.78461,-203.91796)"
     id="g43" /><g
     transform="translate(-186.78461,-203.91796)"
     id="g45" /><g
     transform="translate(-186.78461,-203.91796)"
     id="g47" /><g
     transform="translate(-186.78461,-203.91796)"
     id="g49" /><g
     transform="translate(-186.78461,-203.91796)"
     id="g51" /></svg>