<svg xmlns="http://www.w3.org/2000/svg" viewBox="0 0 103.69 103.69"><path d="M52.9 58.2c10.1 0 19.1 5.72 22.95 14.6.65 1.52-.05 3.3-1.57 3.94-1.52.66-3.28-.04-3.94-1.56-2.9-6.7-9.73-11-17.42-11-7.86 0-14.74 4.3-17.5 11-.5 1.14-1.6 1.84-2.8 1.84-.37 0-.76-.07-1.14-.23-1.53-.66-2.25-2.4-1.62-3.9 3.7-8.98 12.77-14.7 23.07-14.7zM28.87 32.3c-1.1-.08-1.93-1.04-1.86-2.14.1-1.1 1-1.94 2.17-1.86.08 0 8.68.5 11.9-3.96.65-.9 1.9-1.1 2.8-.44.9.64 1.1 1.9.44 2.8-3.7 5.1-11.4 5.62-14.3 5.62-.62 0-1.03-.02-1.1-.03zm15.6 7.2c0 1.3-.4 2.52-1.1 3.52-1.13-1.55-2.96-2.56-5.02-2.56-2.1 0-3.97 1.06-5.1 2.67-.73-1.02-1.18-2.28-1.18-3.64 0-3.48 2.78-6.26 6.2-6.26s6.2 2.78 6.2 6.2zM60.4 26.65c-.66-.9-.46-2.14.43-2.8.9-.64 2.15-.44 2.8.45 3.23 4.46 11.82 3.97 11.9 3.96 1.12-.07 2.06.77 2.13 1.87.07 1.1-.76 2.05-1.86 2.12-.1 0-.5.03-1.13.03-2.9 0-10.57-.5-14.3-5.63zm6 6.6c3.43 0 6.2 2.77 6.2 6.2 0 1.36-.44 2.62-1.2 3.64-1.1-1.66-2.97-2.7-5.1-2.7-2.04 0-3.86 1-5 2.55-.7-1.02-1.1-2.23-1.1-3.55 0-3.4 2.78-6.2 6.2-6.2zM32.02 58.6c-3.6 0-3.6-3.98-3.6-3.98 0-3.44 4.55-7.54 4.55-7.54.44 2.75 1.52 4.35 1.52 4.35 1.2 1.8 1.2 3.5 1.2 3.5 0 3.72-3.7 3.68-3.7 3.68zm53.45 45.1H18.23C8.18 103.7 0 95.5 0 85.46V18.23C0 8.18 8.18 0 18.23 0h67.23c10.06 0 18.24 8.18 18.24 18.23v67.23c0 10.06-8.18 18.23-18.23 18.23zM18.23 8.57c-5.32 0-9.65 4.33-9.65 9.65v67.23c0 5.33 4.33 9.65 9.65 9.65h67.23c5.33.02 9.66-4.3 9.66-9.64V18.23c0-5.32-4.33-9.65-9.66-9.65H18.23z"/></svg>