<svg xmlns="http://www.w3.org/2000/svg" viewBox="0 0 27 32"><path d="M17.34 22.2V26c0 .8-.23 1.2-.7 1.2-.27 0-.53-.13-.8-.4v-5.37c.27-.26.53-.38.8-.38.47 0 .7.4.7 1.2zm6.03.03v.82h-1.6v-.82c0-.8.27-1.2.8-1.2s.8.4.8 1.2zm-17.25-3.9h1.92v-1.67H2.47v1.68h1.87V28.5h1.8V18.34zm5.15 10.17h1.6v-8.82h-1.6v6.75c-.36.5-.7.75-1.02.75-.2 0-.34-.13-.38-.38v-7.12h-1.6v6.98c0 .63.05 1.04.14 1.3.2.45.6.67 1.1.67.6 0 1.2-.36 1.8-1.1v.97zm7.66-2.64v-3.52c0-.82-.04-1.4-.16-1.77-.2-.66-.64-1-1.27-1-.6 0-1.14.32-1.66.96v-3.87h-1.6V28.5h1.6v-.86c.54.66 1.1.98 1.66.98.63 0 1.07-.33 1.27-.98.12-.37.16-.96.16-1.78zm6.03-.18v-.23h-1.62c0 .64-.02 1-.04 1.1-.1.4-.32.63-.7.63-.56 0-.83-.4-.83-1.23V24.4h3.2v-1.85c0-.94-.17-1.62-.5-2.07-.45-.6-1.08-.9-1.88-.9-.9 0-1.5.3-2 .9-.4.45-.5 1.13-.5 2.07v3.1c0 .94.2 1.64.5 2.06.4.7 1.1 1 1.9 1s1.5-.3 1.9-.9c.2-.3.3-.6.4-.9v-1.1zM14.1 9.38V5.62c0-.82-.23-1.23-.76-1.23-.52 0-.77.4-.77 1.2v3.7c0 .8.25 1.2.77 1.2.53 0 .77-.5.77-1.3zm12.85 13.4c0 2.06-.02 4.26-.47 6.26-.34 1.4-1.48 2.44-2.86 2.6-3.28.36-6.6.36-9.9.36s-6.63 0-9.92-.38c-1.37-.14-2.53-1.17-2.85-2.58-.47-2-.47-4.2-.47-6.25 0-2.1.02-4.3.47-6.3.34-1.4 1.48-2.5 2.87-2.6 3.27-.4 6.6-.4 9.9-.4s6.62 0 9.9.3c1.38.1 2.54 1.2 2.86 2.6.47 2 .47 4.2.47 6.2zM9.13 0h1.82L8.8 7.13v4.83H7V7.12C6.84 6.25 6.48 5 5.9 3.35A245.02 245.02 0 0 1 4.76 0h1.9L7.9 4.7zm6.6 5.95v3.12c0 .95-.16 1.66-.5 2.1-.44.62-1.07.92-1.9.92-.8 0-1.42-.3-1.87-1-.34-.5-.5-1.2-.5-2.1V5.9c0-.95.16-1.65.5-2.1.45-.6 1.07-.9 1.88-.9.82 0 1.44.3 1.9.9.33.45.5 1.15.5 2.1zm5.98-2.9v8.9h-1.6V11c-.6.75-1.2 1.1-1.8 1.1-.5 0-.9-.2-1-.65-.1-.27-.1-.7-.1-1.34v-7h1.68v7.2c.05.3.18.4.4.4.3 0 .65-.2 1-.7V3.1h1.6z"/></svg>