<svg xmlns="http://www.w3.org/2000/svg" viewBox="0 0 80 32"><path d="M10.75 5.3a.45.45 0 0 0 0-.06L10.8 5H9.3C8 5 7.58 5 7.54 5.02c-.02 0-.48 1.77-1.3 4.94-.4 1.52-.72 2.73-.73 2.7l-1-3.86C3.9 6.72 3.5 5 3.4 5H.14c-.2 0-.33-.4 1.88 6.6.3.97.76 2.34 1 3.05.3.82.5 1.45.65 1.97.26 1 .26 1.63.2 2.37-.05.8-.06 6.8 0 6.9.04.1 2.85.1 3.1 0 .06 0 .1-.1.1-.3.07-.2.07-1 .07-4.2v-4.1l.18-.6.66-2.2.65-2.2c1.07-3.4 2.07-6.8 2.1-7l.02-.2zm15.7 4.97v.2h-.04V22.1l-.4.46c-.5.53-.9.73-1.3.63-.4-.1-.4 0-.4-6.7v-6.3h-3v6.9c0 7.2 0 7.2.4 7.9.3.6.7.85 1.5.95.9.12 2-.3 2.9-1.25l.4-.4v.7c0 .6.07.7.18.7.17.06 2.4.07 2.64 0l.2-.02v-.2h.03V10.3l-2.95.02zm-7.48 3.05c-.28-1.2-.8-2-1.67-2.56-1.35-.87-2.9-.96-4.33-.26-1.05.52-1.72 1.38-2.07 2.63l-.1.46c-.08.4-.1 1.1-.1 4.1-.05 4.7 0 5.3.6 6.4.58 1 1.8 1.8 3.1 2 .4 0 1.2 0 1.68-.2 1.05-.3 2.05-1.1 2.5-2.1.2-.4.3-.7.38-1.2.13-.7.14-1.9.14-4.8 0-3.7 0-4.2-.14-4.7zM15.6 23c-.24.2-.68.27-1.03.2-.27-.06-.63-.5-.75-.87-.14-.5-.15-7.2-.03-8.5.2-.66.7-1 1.3-.84.4.1.7.4.8 1 .1.4.1 1 .1 4.4 0 2.2-.1 3.3-.1 3.9-.1.3-.2.4-.4.6zm56.3-6.3h1.4v-1.3c-.03-1.18-.05-1.32-.2-1.64-.26-.5-.63-.73-1.2-.73-.7 0-1.16.34-1.37 1.04-.1.3-.18 2.33-.1 2.5.03.1.23.12 1.46.12zm-9.53-2.94c-.2-.4-.54-.57-.95-.56-.32 0-.68.15-1.02.4l-.25.2v9.27l.25.2c.58.43 1.2.53 1.64.23.18-.1.3-.27.38-.52.1-.33.12-.75.1-4.65 0-4.07-.02-4.3-.15-4.57z"/><path d="M80.03 9.58c-.3-3.4-.5-4.5-1.2-5.92-.94-1.88-2.3-2.87-4.2-3.1-1.48-.15-7.04-.4-12.2-.5-8.9-.2-23.55.18-25.42.66-.8.22-1.5.6-2.1 1.26-1.2 1.18-1.9 2.87-2.1 5.2-.6 5.34-.6 11.78 0 17.3.3 2.38.88 3.92 1.9 5.2.67.8 1.78 1.46 2.78 1.66.7.14 4.2.34 9.3.52.76.03 2.77.08 4.47.1 3.5.07 10.03.04 13.75-.07 2.5-.1 7.06-.3 7.9-.4l1.24-.1c1.45-.1 2.4-.4 3.3-1.1 1.12-.9 2-2.6 2.4-4.5.33-1.9.6-5.1.62-8.9.05-3.1 0-4.8-.23-7.5zm-35.5-1.23l-1.65.02-.07 17.66-1.4.02c-1.1 0-1.4 0-1.5-.07V8.38l-3.2-.05V5.57l9.6.04.1 2.8h-1.7zM54.7 18.47v7.6h-2.62v-.8c0-.6-.02-.8-.1-.8-.05 0-.28.2-.52.44-.52.6-1.13 1-1.66 1.2-1.08.4-2.1.2-2.55-.6-.4-.7-.4-.8-.4-8v-6.6h2.6l.03 6.2c.02 6.1.02 6.2.17 6.5.2.4.48.4.95.3.28-.1.47-.2.9-.6l.58-.5V10.9h2.6v7.6zm10.2 6.5c-.23.53-.75 1.03-1.17 1.15-1.1.33-1.98.06-3-.9-.3-.3-.6-.53-.65-.53-.05 0-.08.2-.08.6v.7h-2.62V5.5H60v3.4c0 1.85.03 3.36.05 3.36s.3-.25.62-.54c.7-.7 1.3-.98 2.05-1.04 1.33-.1 2.13.6 2.5 2.16.1.5.12 1.05.12 5.6 0 5.53 0 5.55-.44 6.54zm11.07-3.03c-.02.57-.1 1.23-.16 1.46-.3 1.35-1.3 2.3-2.7 2.7-1.9.52-3.9-.34-4.8-2-.4-.93-.4-1.12-.4-5.66 0-3.7.1-4.17.2-4.67.4-1.43 1.2-2.36 2.6-2.87a3.92 3.92 0 0 1 1.3-.23c1.57-.04 3.08.78 3.7 2.1.45.9.5 1.3.55 3.83l.03 2.27-5.6.04-.02 1.6c0 2.2.14 2.8.7 3.2.5.4 1.26.3 1.67 0 .4-.3.5-.7.55-1.7v-.9h2.7l-.1 1z"/></svg>