<?xml version="1.0" standalone="no"?>
<!DOCTYPE svg PUBLIC "-//W3C//DTD SVG 20010904//EN"
 "http://www.w3.org/TR/2001/REC-SVG-20010904/DTD/svg10.dtd">
<svg version="1.0" xmlns="http://www.w3.org/2000/svg"
 width="700.000000pt" height="700.000000pt" viewBox="0 0 700.000000 700.000000"
 preserveAspectRatio="xMidYMid meet">
<metadata>
Created by potrace 1.11, written by Peter Selinger 2001-2013
</metadata>
<g transform="translate(0.000000,700.000000) scale(0.100000,-0.100000)"
fill="#000000" stroke="none">
<path d="M1050 6985 c-453 -66 -839 -390 -985 -827 -69 -208 -66 -62 -62
-2708 2 -2254 4 -2389 21 -2460 63 -263 164 -450 340 -626 195 -195 426 -312
691 -349 152 -22 4741 -22 4893 0 508 72 918 461 1029 975 17 81 18 202 18
2510 0 2308 -1 2429 -18 2510 -79 367 -308 671 -637 849 -101 54 -272 109
-395 126 -138 20 -4760 20 -4895 0z m4920 -592 c197 -68 346 -217 417 -418
l28 -80 3 -2363 c3 -2638 8 -2433 -70 -2591 -80 -163 -234 -288 -418 -338 -62
-17 -188 -18 -2435 -18 l-2370 0 -75 23 c-175 55 -322 178 -399 333 -76 154
-71 -42 -71 2564 0 2552 -3 2403 58 2536 81 177 238 310 424 359 71 18 136 19
2458 17 l2385 -2 65 -22z"/>
<path d="M2737 5322 c-66 -63 -113 -98 -168 -125 -131 -65 -341 -107 -532
-107 -117 0 -150 -10 -185 -55 -48 -61 -35 -138 30 -186 39 -28 46 -29 145
-29 242 0 506 55 675 141 112 57 242 166 287 240 59 97 -5 209 -119 209 -38 0
-48 -7 -133 -88z"/>
<path d="M4095 5377 c-69 -69 -54 -155 43 -255 93 -95 198 -160 346 -212 171
-60 350 -90 546 -90 96 0 120 3 147 20 88 53 81 190 -11 234 -25 12 -64 16
-143 16 -197 0 -410 46 -548 118 -48 25 -96 63 -152 119 l-82 83 -56 0 c-51 0
-60 -3 -90 -33z"/>
<path d="M4402 4749 c-107 -21 -225 -104 -278 -195 -69 -118 -75 -285 -13
-406 11 -21 22 -38 26 -38 3 0 29 22 58 49 90 85 182 117 315 109 99 -6 188
-47 261 -120 47 -47 51 -49 64 -32 24 31 54 121 61 177 22 190 -111 390 -294
442 -66 19 -149 25 -200 14z"/>
<path d="M2454 4731 c-78 -29 -108 -47 -164 -101 -126 -123 -159 -323 -80
-481 l31 -60 45 50 c66 74 167 121 270 128 133 9 241 -32 331 -124 l43 -45 30
64 c106 227 -18 500 -262 573 -68 20 -180 18 -244 -4z"/>
<path d="M2044 3015 c-85 -42 -132 -146 -104 -232 19 -56 86 -188 137 -267
181 -281 459 -503 790 -630 245 -95 553 -135 820 -107 489 51 935 309 1211
701 64 92 160 277 167 325 22 137 -113 260 -246 225 -72 -19 -102 -51 -164
-167 -188 -357 -484 -578 -888 -665 -80 -17 -135 -21 -252 -21 -176 0 -294 18
-445 69 -323 108 -561 310 -714 604 -59 113 -90 150 -148 174 -53 23 -107 20
-164 -9z"/>
</g>
</svg>
